<svg width="188" height="123" viewBox="0 0 188 123" fill="none" xmlns="http://www.w3.org/2000/svg">
<path fill-rule="evenodd" clip-rule="evenodd" d="M104.248 0.597815C96.8444 2.24149 87.5512 8.31747 83.1189 14.3864L81.349 16.7887L80.0846 14.3864C77.2397 8.82322 71.1637 4.20125 64.2097 2.43113C60.7327 1.54608 59.4684 1.48285 56.0476 2.11503C40.6785 4.95986 29.6083 20.1463 32.8324 33.9981C33.4014 36.3372 34.2864 39.182 34.8553 40.2005C35.3611 41.2753 35.7404 42.2235 35.614 42.2867C35.4876 42.3499 33.7175 42.7293 31.6313 43.1718C25.6818 44.3097 17.0839 48.9246 12.5252 53.2937C2.21361 63.4157 -2.71736 79.9859 1.51826 90.8032C4.86883 99.5344 14.4851 105.919 24.2277 105.919C26.1875 105.919 26.8828 106.172 26.63 106.678C20.4275 121.478 24.6071 134.887 37.2577 141.027C51.4256 147.924 64.1395 144.44 72.5546 131.41C73.9454 129.198 75.2728 127.428 75.3993 127.428C75.5257 127.428 76.9166 128.313 78.4971 129.387C84.3834 133.433 93.8662 136.791 101.017 137.36C115.817 138.498 127.14 131.031 130.94 117.622C131.572 115.536 132.078 113.765 132.141 113.702C132.204 113.639 134.038 114.271 136.25 115.156C142.326 117.622 146.309 118.064 152.568 116.926C167.115 114.398 179.955 105.919 185.146 95.2917C186.979 91.5619 187.233 90.4871 187.233 85.6755C187.233 78.6513 185.399 74.4156 179.955 69.2317L176.225 65.6283L178.375 60.318C181.915 51.5236 182.674 47.7305 182.358 39.8212C181.978 31.9751 180.777 28.0556 177.11 22.6821C174.518 19.0154 168.822 14.5199 164.333 12.7498C156.867 9.7785 145.86 10.8532 136.314 15.4681C133.469 16.8589 131.067 17.9969 131.003 17.9969C130.877 17.9969 129.802 15.9107 128.538 13.3187C123.291 2.75425 114.686 -1.73423 104.248 0.604846V0.597815ZM115.761 6.86343C119.807 8.75998 120.818 9.96113 124.302 16.9222C128.095 24.5786 128.854 24.8315 136.763 21.2842C145.494 17.3647 148.845 16.5428 155.553 16.8589C159.725 17.0486 162.008 17.4911 163.842 18.4394C168.267 20.7785 172.194 24.7682 174.406 29.1935C176.24 32.9234 176.492 34.1245 176.682 39.6948C177.061 47.7305 176.24 51.3972 172.257 59.8755C168.59 67.6583 168.59 68.9227 172.32 71.0089C180.103 75.371 183.643 85.4297 180.04 92.8964C178.08 96.8792 172.889 102.449 168.337 105.421C162.837 108.961 153.727 111.813 147.398 111.876C142.151 111.939 140.121 111.244 133.04 107.008C130.891 105.744 130.575 105.744 129.69 106.566C129.184 107.135 127.983 110.106 127.098 113.211C123.558 125.545 118.493 130.603 107.676 132.569C99.8298 134.023 90.1573 131.242 81.4261 125.166C74.0858 120.045 73.2008 120.108 69.5341 126.367C65.8043 132.822 63.2685 135.414 58.8432 137.627C55.0501 139.46 54.4179 139.587 49.8592 139.334C41.6338 138.828 34.2373 134.34 30.8797 127.821C29.4256 125.103 29.1728 123.838 29.1728 119.532C29.236 115.297 29.5521 113.646 31.259 109.537C33.1555 104.922 33.2188 104.479 32.3337 103.082C31.259 101.438 29.8681 101.122 23.0967 100.679C17.7864 100.3 13.4174 98.1506 9.68755 93.9712C2.97939 86.5676 3.61145 74.5491 11.1414 63.226C16.0725 55.8225 22.6543 51.3972 31.7647 49.1845C40.5591 47.0983 41.0648 46.9087 41.7602 45.0121C42.266 43.5581 42.0764 42.7363 40.9384 40.6501C37.335 34.4477 36.5132 27.3672 38.8523 22.1131C40.7488 17.8143 46.0661 12.6233 50.8706 10.2842C60.5501 5.66931 68.6491 8.57734 76.5513 19.5843C78.6376 22.4292 79.3328 23.0614 80.6604 23.0614C81.1662 23.0614 84.2007 20.5959 87.3686 17.4982C98.5021 6.74403 107.992 3.20381 115.768 6.87047L115.761 6.86343Z" fill="#79C6ED"/>
</svg>
