<svg width="107" height="71" viewBox="0 0 107 71" fill="none" xmlns="http://www.w3.org/2000/svg">
<path fill-rule="evenodd" clip-rule="evenodd" d="M100.676 0.135454C101.401 0.30807 103.174 0.995548 103.834 1.34922C105.707 2.39637 106.516 4.35482 105.896 6.36049C105.741 6.85815 105.574 7.56636 105.525 7.94266C105.438 8.60492 104.001 11.9251 103.252 13.1956C103.003 13.6342 102.751 13.8774 102.484 13.9404C102.176 14.0038 102.004 14.201 101.769 14.7296C100.801 16.9043 94.0793 30.4528 93.7623 30.862C93.366 31.3773 93.5527 31.3001 88.8444 32.9286C88.0305 33.2079 86.9635 33.6251 86.4456 33.8711C85.4729 34.3324 85.0042 34.3374 84.8389 33.9033C84.7837 33.7536 84.6705 31.9361 84.5816 29.8798C84.5059 27.8064 84.3926 25.9758 84.3371 25.796C84.2674 25.5413 84.4241 25.1638 84.9236 24.2867C85.2916 23.6365 86.0538 22.2756 86.6187 21.2494C87.1703 20.2364 88.9699 17.1078 90.6005 14.2947C92.2312 11.4985 93.6101 9.10897 93.6626 9.0032C93.715 8.89742 93.7781 8.53602 93.8146 8.18993C93.8369 7.76884 94.1762 6.93854 94.8711 5.54831C95.9464 3.41753 96.6446 2.32977 96.9526 2.32647C97.0597 2.32533 97.1654 2.18892 97.2173 2.03806C97.3588 1.49546 98.42 0.537197 99.1539 0.288866C99.8476 0.0409651 100.169 0.00747847 100.679 0.137298L100.676 0.135454ZM99.3216 1.26217C99.1217 1.35449 98.7494 1.59896 98.4974 1.82711L98.0329 2.22287L99.1606 2.48136C101.04 2.91219 102.696 3.8865 104.267 5.49112L105.079 6.3091L105.168 5.91736C105.347 5.08878 105.134 3.91869 104.699 3.33715C104.196 2.65112 102.875 1.83856 101.56 1.41674C100.418 1.05319 99.868 1.01396 99.3216 1.26029L99.3216 1.26217ZM95.8346 5.64136C95.1913 6.85067 94.6665 7.86331 94.667 7.9084C94.6674 7.95349 95.1098 7.99385 95.6454 7.98812C97.4535 7.99886 99.3751 8.77493 100.661 10.0237C101.364 10.6926 102.211 12.2016 102.217 12.7859C102.22 13.1165 102.234 13.1164 102.472 12.8733C102.605 12.7366 103.168 11.5883 103.731 10.3197C104.921 7.66353 104.92 7.60341 103.917 6.42673C103.198 5.57768 102.185 4.77687 100.947 4.0987C99.8561 3.49411 99.319 3.36459 98.0489 3.40822L96.9914 3.44958L95.8363 5.64134L95.8346 5.64136ZM94.5743 9.26025C94.5485 9.35071 93.0107 12.0707 91.1583 15.277C89.3179 18.4962 87.5712 21.5661 87.2824 22.1103C86.9936 22.6545 86.6653 23.2592 86.5601 23.4407C86.3761 23.7733 86.3765 23.8034 86.6172 23.7707C87.3393 23.6728 87.6358 23.85 88.194 24.7008C88.3438 24.9397 88.5023 24.7276 89.6051 22.6566C91.0097 20.0113 93.6485 15.2053 95.5278 11.8653C96.2376 10.6102 96.8283 9.49167 96.8538 9.37116C96.9298 8.96452 94.6921 8.85317 94.576 9.26023L94.5743 9.26025ZM97.4948 9.51461C97.4956 9.58975 96.208 11.9182 94.6456 14.6836C93.0815 17.449 91.2308 20.8055 90.5219 22.1358L89.2355 24.5694L89.8945 24.8329C90.5939 25.111 91.1099 25.7819 91.1167 26.4131C91.1184 26.5784 91.1602 26.7283 91.2272 26.7275C91.3878 26.7258 95.532 18.6741 97.2866 14.9428C98.1773 13.0695 99.0421 11.2886 99.213 10.9861C99.3703 10.6688 99.5145 10.3817 99.514 10.3366C99.5128 10.2164 97.87 9.37721 97.6557 9.3795C97.5754 9.38036 97.4957 9.44133 97.4965 9.51647L97.4948 9.51461ZM97.5616 15.7647C96.6053 17.7589 94.9151 21.0968 93.8126 23.1978C92.1068 26.4908 91.858 27.0195 92.1125 27.0168C92.5811 27.0118 93.2701 27.5756 93.4905 28.1444C93.6008 28.4438 93.7237 28.668 93.7368 28.6378C93.7633 28.6074 95.0344 25.9936 96.5658 22.8377C98.0989 19.6819 99.8145 16.2065 100.392 15.1182C100.956 14.0299 101.415 13.0631 101.414 12.9579C101.41 12.6273 100.973 11.8203 100.485 11.2694L99.9967 10.7035L99.6563 11.4285C99.473 11.8213 98.5296 13.7703 97.5599 15.7628L97.5616 15.7647ZM86.2392 24.9002C85.453 25.2693 85.3217 25.5112 85.4118 26.4271C85.4568 26.8775 85.5449 27.598 85.5899 28.0485L85.6655 28.8593L86.2556 28.9432C87.2349 29.098 88.8408 30.4036 89.091 31.2576C89.1607 31.5124 89.2676 31.4962 90.7219 30.9847C93.0036 30.2088 93.1617 30.1169 93.1561 29.5909C93.1423 28.2984 92.5737 27.7333 91.5453 27.9848C90.5968 28.2054 90.4618 28.1016 90.4512 27.1097C90.4434 26.3883 90.388 26.2086 90.0902 25.9111C89.6297 25.4351 89.2951 25.4537 88.6843 25.9412C88.2726 26.2612 88.1392 26.3077 87.9099 26.1599C87.7483 26.0714 87.6254 25.8473 87.6234 25.667C87.6186 25.2161 87.2511 24.6639 86.9565 24.667C86.8226 24.6685 86.5024 24.7771 86.2359 24.9002L86.2392 24.9002Z" fill="#482121"/>
<path fill-rule="evenodd" clip-rule="evenodd" d="M31.6594 29.1875C34.0892 29.3906 37.5781 31.9537 39.7099 35.0423C41.2905 37.3399 42.8005 41.0216 43.3227 43.7724C43.5614 45.0092 43.7587 46.2928 43.7446 46.5489C43.7219 47.6007 51.7271 49.7569 56.9623 50.1701C60.6653 50.4418 66.8272 49.1779 69.8491 47.5333C73.1041 45.7565 76.1608 42.9128 79.0669 38.9537C80.3963 37.1683 80.9212 36.9248 81.2002 38.007C81.9325 40.8478 75.7748 47.5161 69.722 50.4469C63.6605 53.344 55.7363 53.367 47.0842 50.4759L43.8081 49.3728L43.5295 50.7791C42.894 54.1168 40.7752 57.2959 37.8 59.2124C37.0432 59.6961 35.2921 60.3639 33.4166 60.8473C29.9263 61.711 27.0575 61.6571 23.2467 60.6558C21.1904 60.14 21.1065 60.1255 21.0217 60.8326C20.7475 62.6706 19.2048 65.7011 17.9689 66.8132C16.4172 68.1509 13.6489 69.7302 12.2124 70.0644C9.79042 70.6166 7.40501 69.5364 9.73131 68.9367C11.6099 68.4524 15.4998 66.0431 16.9491 64.5153C18.1828 63.1874 19.2029 60.6162 18.9414 59.6016C18.889 59.3987 17.9349 58.5988 16.838 57.7635C13.0258 54.9953 11.287 51.0479 13.1109 49.3154C14.4372 48.0357 16.6079 49.0991 18.5514 51.9884C19.4011 53.212 20.0504 54.4873 20.397 55.6243L20.9004 57.37L22.496 57.8603C29.118 59.832 35.6599 58.5784 39.041 54.7133C40.646 52.8569 41.813 49.9232 41.4642 48.5704C41.4207 48.4013 40.3925 47.7286 39.1552 47.0738C34.8791 44.7859 30.1854 40.5543 28.5045 37.453C26.0904 33.0621 27.7059 28.8632 31.6573 29.179L31.6594 29.1875ZM29.5723 33.0076C29.3186 33.5779 29.2599 34.3865 29.4081 34.9614C30.0707 37.5317 34.3668 41.8658 38.9622 44.5764C41.4215 46.0342 41.4803 46.0551 41.4301 45.2385C41.1853 40.1441 36.9086 33.605 32.8873 32.1891C30.9715 31.4927 30.0698 31.7252 29.5723 33.0076ZM14.2844 51.9117C14.5373 52.8925 16.1723 54.7792 17.4194 55.5758C18.6665 56.3724 18.746 55.9552 17.6555 54.1084C16.2578 51.6915 13.8224 50.1193 14.2844 51.9117Z" fill="#482121"/>
</svg>
