<svg width="169" height="167" viewBox="0 0 169 167" fill="none" xmlns="http://www.w3.org/2000/svg">
<path fill-rule="evenodd" clip-rule="evenodd" d="M84.7677 0.741284C83.1303 1.90112 83.2668 8.39013 85.0406 14.6669C87.2239 22.4522 88.6566 20.739 88.8613 10.2322C89.0659 1.2871 87.8379 -1.51016 84.7677 0.741284Z" fill="#BFDD0C"/>
<path fill-rule="evenodd" clip-rule="evenodd" d="M86.132 35.355C85.8591 35.8326 85.3816 40.4037 85.1769 45.46C84.2899 62.5922 79.2413 80.1413 72.4111 90.1781C68.1811 96.3184 62.9884 100.42 52.8152 105.741C46.3944 109.084 44.5523 110.312 44.4158 111.54C44.2112 113.041 44.3476 113.109 48.5094 112.973C50.8973 112.837 53.4899 113.178 54.3086 113.587C55.1273 114.065 57.9928 114.883 60.7976 115.429C66.665 116.657 70.2885 118.636 74.5185 122.942C80.4542 129.014 83.4636 136.799 87.6254 157.009C88.9899 163.771 90.3544 169.843 90.7638 170.457C92.0601 172.981 96.2901 172.572 97.1088 169.911C97.3134 169.229 99.0191 160.83 100.929 151.278C105.501 128.339 107.555 122.13 112.126 117.279C115.81 113.322 120.935 111.411 130.145 110.585C135.262 110.108 137.112 109.152 137.112 106.969C137.112 105.127 135.952 104.513 130.282 103.149C122.974 101.443 114.923 98.441 111.163 95.9773C100.717 89.2836 96.5554 79.118 93.0759 51.6685C92.0525 43.9514 91.0291 36.9242 90.688 36.0373C89.9375 34.3999 87.072 33.9223 86.1169 35.355H86.132ZM94.0538 84.4395C97.9427 93.7258 103.477 99.3886 112.619 103.694C115.211 104.854 117.326 106.014 117.326 106.219C117.326 106.423 115.962 107.106 114.256 107.788C104.833 111.677 100.126 120.963 95.7594 143.902C94.7361 149.087 93.7809 153.256 93.5762 153.052C93.4398 152.847 92.2117 148.617 90.9154 143.629C87.9135 131.955 84.3582 124.511 79.2412 119.326C74.4654 114.413 69.8868 111.677 64.1558 110.244L59.7211 109.152L64.224 106.287C74.1925 100.01 81.4927 89.4958 85.9349 74.8197C87.163 70.8626 88.2546 67.1709 88.4593 66.6251C88.664 66.0793 89.4827 68.6719 90.3696 72.4925C91.2566 76.3132 92.894 81.6423 94.0538 84.4395Z" fill="#BFDD0C"/>
<path fill-rule="evenodd" clip-rule="evenodd" d="M132.283 49.0758C129.417 50.9861 125.589 56.0424 122.451 61.9098C120.063 66.4809 119.517 68.6717 120.745 68.6717C122.178 68.6717 135.012 54.2685 137.127 50.3114C137.809 49.0152 137.809 48.6058 137.059 48.1282C135.626 47.2413 134.807 47.3778 132.283 49.0834V49.0758Z" fill="#BFDD0C"/>
<path fill-rule="evenodd" clip-rule="evenodd" d="M38.3436 63.0008C36.5016 63.683 37.6614 65.9345 41.9596 69.9674C50.1542 77.6844 55.2029 81.0957 55.2029 79.0489C55.2029 77.4115 46.2578 66.5561 43.0512 64.3046C40.4586 62.5307 39.8446 62.3261 38.3436 63.0084V63.0008Z" fill="#BFDD0C"/>
<path fill-rule="evenodd" clip-rule="evenodd" d="M156.382 102.185C154.403 102.526 152.083 103.14 151.333 103.549C149.9 104.3 149.9 104.368 151.06 105.255C154.062 107.37 165.804 108.393 168.124 106.688C169.557 105.664 169.147 103.208 167.51 102.526C165.395 101.776 159.861 101.571 156.382 102.185Z" fill="#BFDD0C"/>
<path fill-rule="evenodd" clip-rule="evenodd" d="M2.16142 111.744C-0.431153 112.495 -0.704048 113.382 1.41095 114.473C4.13997 115.974 21.7574 114.2 21.7574 112.427C21.7574 111.199 6.05786 110.653 2.16142 111.744Z" fill="#BFDD0C"/>
<path fill-rule="evenodd" clip-rule="evenodd" d="M119.38 135.162C119.38 136.662 127.984 143.629 130.508 144.175C133.442 144.789 134.124 143.22 131.873 140.9C130.167 139.126 123.883 135.51 120.949 134.547C119.789 134.206 119.38 134.411 119.38 135.162Z" fill="#BFDD0C"/>
<path fill-rule="evenodd" clip-rule="evenodd" d="M53.9746 144.167C49.4717 149.216 47.0763 153.59 48.1072 155.159C48.5166 155.773 49.1306 156.387 49.5399 156.524C50.9727 157.001 53.9064 153.726 56.2336 149.011C60.5318 140.203 59.4403 137.951 53.9822 144.167H53.9746Z" fill="#BFDD0C"/>
</svg>
