<svg width="104" height="20" viewBox="0 0 104 20" fill="none" xmlns="http://www.w3.org/2000/svg">
<path fill-rule="evenodd" clip-rule="evenodd" d="M83.616 0.114083C79.7256 0.552269 69.0434 1.81129 65.63 2.2433C59.8482 2.97156 50.2134 3.65045 34.6144 4.42191C9.36197 5.73029 1.56249 7.1374 0.278945 10.7663C-0.674948 13.4325 0.554831 13.6732 8.11584 12.4635C16.1538 11.1551 20.2289 10.6244 29.202 9.74803C43.3701 8.34089 60.6758 6.16229 67.9258 4.90327C83.6721 2.14456 89.178 1.55826 96.9588 1.94708C103.695 2.23714 104.391 2.13838 103.858 0.737424C103.692 0.299238 86.7185 -0.231496 83.616 0.107943V0.114083Z" fill="#BCA029"/>
<path fill-rule="evenodd" clip-rule="evenodd" d="M72.88 11.3033C71.5778 11.402 67.3928 11.7847 63.5936 12.1735C59.3899 12.6117 52.2521 12.9017 45.334 12.9017C32.8913 12.9017 23.8621 13.4819 18.1925 14.5989C14.1361 15.4198 12.9624 15.8579 11.9337 17.0182C11.3095 17.6971 11.2721 17.839 11.5293 18.5179C11.6953 18.9561 12.226 19.4869 12.7029 19.7275C13.6568 20.2089 14.0426 20.1657 20.8508 18.6599C29.9899 16.6726 33.9364 16.2406 47.1857 15.8024C54.5643 15.5617 61.2439 15.2223 62.0505 15.0742C62.8571 14.926 65.2068 14.5866 67.2806 14.3459C71.5567 13.7657 77.9978 12.5067 78.6221 12.1673C78.8605 12.0192 78.9891 11.6859 78.933 11.4391C78.8605 11.149 78.0329 11.0009 77.0416 11.0502C76.069 11.0996 74.1963 11.2416 72.8753 11.2909L72.88 11.3033Z" fill="#BCA029"/>
</svg>
